<svg width="213" height="53" viewBox="0 0 213 53" fill="none" xmlns="http://www.w3.org/2000/svg">
<path d="M11.0267 1.99292L192.548 0L211.158 15.6646L212.284 37.9675L200 53H14.4038L0.695757 35.1694L0 21.4175L11.0267 1.99292Z" fill="#FDFF00"/>
<path d="M27.7121 31.8102L24.2406 26.2449L31.5415 20.2334L32.8622 21.0422L37.6217 24.6182L31.0765 23.5106L29.3107 27.1412L30.9021 29.5659L47.8673 31.6717L48.3959 29.9958L49.3333 27.5584L46.3631 11.9229L42.3539 11.5258L40.6409 13.8648L41.8543 19.0056L40.5664 17.6156L35.4926 12.7955L26.7893 15.1236L18.2241 23.9259L18.1387 32.3148L23.5521 37.4592L32.3554 41.4742L35.8232 34.6884L27.7121 31.8102Z" fill="#FF00B5"/>
<path d="M64.3416 29.6278C64.5087 29.7006 65.8003 30.3237 68.2146 31.4968C70.6288 32.6718 72.3873 33.4515 73.4936 33.834L74.2511 32.3603C73.3628 31.9049 71.5317 31.0123 68.7559 29.6824C65.982 28.3526 63.8965 27.327 62.505 26.6074V19.4173L66.3962 13.9522L75.1885 14.5279L80.1605 19.6686L77.4938 24.2702C74.8506 23.6472 71.8005 22.7491 68.3417 21.5741L67.8367 23.1918C71.6552 24.7256 75.5718 26.0919 79.5828 27.2906L79.7264 36.2441L75.1867 40.0186H68.3054L62 35.7031L64.3416 29.626V29.6278Z" fill="#FF00B5"/>
<path d="M92.0483 13.9522H100.588L100.841 18.3753L98.6062 21.1442L98.8587 32.8303L100.841 33.7284L100.049 40.0205H91.9774L91.5451 31.1762H89.7793L89.347 40.0205H81.492L80.987 32.7574L82.7527 31.7865L83.1851 23.9478L80.9507 20.064L82.1751 13.9522H89.2725L89.8847 24.6673H91.4343L92.0465 13.9522H92.0483Z" fill="#FF00B5"/>
<path d="M109.811 13.9522L110.28 31.3548H112.045L112.478 14.384L118.424 13.2691L120.729 18.0146L118.603 21.3938L120.189 32.7921L116.298 40.0187H106.029L102.677 35.2732L103.542 23.66L101.669 22.1134L102.174 14.3111L109.813 13.9522H109.811Z" fill="#FF00B5"/>
<path d="M137.158 23.0479L137.122 23.0844L129.194 22.7601L129.051 24.1264L136.364 25.2048L135.859 30.3456L130.059 29.8428V31.3894L134.275 32.6482L133.915 39.9823H121.917L121.521 33.2584L123.286 31.353L123.862 24.9534L121.808 21.7527L122.276 14.67L134.382 13.8794L137.734 18.4099L137.158 23.0479Z" fill="#FF00B5"/>
<path d="M153.985 23.0479L153.949 23.0844L146.021 22.7601L145.878 24.1264L153.191 25.2048L152.686 30.3456L146.886 29.8428V31.3894L151.102 32.6482L150.743 39.9823H138.744L138.348 33.2584L140.114 31.353L140.689 24.9534L138.635 21.7527L139.104 14.67L151.209 13.8794L154.561 18.4099L153.985 23.0479Z" fill="#FF00B5"/>
<path d="M162.056 33.3677L163.642 34.0144L167.426 25.9972H172.758L171.893 40.0205H155.535L155.102 32.9724L156.652 32.6135L157.337 23.2646L155.607 21.6106L156.04 14.5989L168.291 13.9868L168.651 20.4939L166.273 21.2845L162.056 33.3659V33.3677Z" fill="#FF00B5"/>
<path d="M190.232 32.6846L190.628 40.0187H174.306L173.873 33.5463L175.639 31.6408L175.999 22.8311L173.837 21.7527L174.269 14.67L187.42 13.9504L191.095 18.481L190.626 22.5797L181.87 22.2555L181.727 23.8021L189.076 24.8805L189.04 30.382L182.014 30.8137V32.2529L190.228 32.6846H190.232Z" fill="#FF00B5"/>
</svg>
