<svg width="83" height="13" viewBox="0 0 83 13" fill="none" xmlns="http://www.w3.org/2000/svg">
<path fill-rule="evenodd" clip-rule="evenodd" d="M14.1201 6.5C14.1201 2.91015 17.0303 0 20.6201 0C24.21 0 27.1201 2.91015 27.1201 6.5C27.1201 10.0899 24.21 13 20.6201 13C17.0303 13 14.1201 10.0899 14.1201 6.5ZM20.1201 5.5C20.1201 6.32843 19.4485 7 18.6201 7C17.7917 7 17.1201 6.32843 17.1201 5.5C17.1201 4.67157 17.7917 4 18.6201 4C19.4485 4 20.1201 4.67157 20.1201 5.5ZM22.6201 7C23.4485 7 24.1201 6.32843 24.1201 5.5C24.1201 4.67157 23.4485 4 22.6201 4C21.7917 4 21.1201 4.67157 21.1201 5.5C21.1201 6.32843 21.7917 7 22.6201 7Z" fill="#152934"/>
<path d="M0.128 11.872C0.213333 11.9574 0.314667 12 0.432 12H3.328C3.44533 12 3.54667 11.9574 3.632 11.872C3.71733 11.7867 3.76 11.6854 3.76 11.568V7.18405L4.816 8.91205C4.89067 9.02938 4.97067 9.12538 5.056 9.20005C5.152 9.27472 5.26933 9.31205 5.408 9.31205H6.528C6.66667 9.31205 6.77867 9.27472 6.864 9.20005C6.96 9.12538 7.04533 9.02938 7.12 8.91205L8.176 7.18405V11.568C8.176 11.6854 8.21867 11.7867 8.304 11.872C8.38933 11.9574 8.49067 12 8.608 12H11.504C11.6213 12 11.7227 11.9574 11.808 11.872C11.8933 11.7867 11.936 11.6854 11.936 11.568V1.23205C11.936 1.11472 11.8933 1.01338 11.808 0.928049C11.7227 0.842716 11.6213 0.800049 11.504 0.800049H8.976C8.67733 0.800049 8.448 0.944049 8.288 1.23205L5.968 5.07205L3.648 1.23205C3.488 0.944049 3.25867 0.800049 2.96 0.800049H0.432C0.314667 0.800049 0.213333 0.842716 0.128 0.928049C0.0426667 1.01338 0 1.11472 0 1.23205V11.568C0 11.6854 0.0426667 11.7867 0.128 11.872Z" fill="#152934"/>
<path d="M46.4704 11.84C46.5877 11.9467 46.7477 12 46.9504 12H50.5984C50.801 12 50.961 11.9467 51.0784 11.84C51.1957 11.7334 51.2757 11.6107 51.3184 11.472L54.3264 1.26405L54.3424 1.15205C54.3424 1.05605 54.305 0.976049 54.2304 0.912049C54.1664 0.837382 54.0864 0.800049 53.9904 0.800049H51.0144C50.8117 0.800049 50.6517 0.853382 50.5344 0.960049C50.417 1.06672 50.337 1.18938 50.2944 1.32805L48.7744 7.28005L47.2544 1.32805C47.2117 1.18938 47.1317 1.06672 47.0144 0.960049C46.897 0.853382 46.737 0.800049 46.5344 0.800049H43.5584C43.4624 0.800049 43.377 0.837382 43.3024 0.912049C43.2384 0.976049 43.2064 1.05605 43.2064 1.15205L43.2224 1.26405L46.2304 11.472C46.273 11.6107 46.353 11.7334 46.4704 11.84Z" fill="#152934"/>
<path d="M55.8877 12C55.7704 12 55.6691 11.9574 55.5837 11.872C55.4984 11.7867 55.4557 11.6854 55.4557 11.568V1.23205C55.4557 1.11472 55.4984 1.01338 55.5837 0.928049C55.6691 0.842716 55.7704 0.800049 55.8877 0.800049H59.1517C59.2691 0.800049 59.3704 0.842716 59.4557 0.928049C59.5411 1.01338 59.5837 1.11472 59.5837 1.23205V11.568C59.5837 11.6854 59.5411 11.7867 59.4557 11.872C59.3704 11.9574 59.2691 12 59.1517 12H55.8877Z" fill="#152934"/>
<path d="M61.1544 11.872C61.2397 11.9574 61.341 12 61.4584 12H70.5944C70.7117 12 70.813 11.9574 70.8984 11.872C70.9837 11.7867 71.0264 11.6854 71.0264 11.568V9.15205C71.0264 9.03472 70.9837 8.93338 70.8984 8.84805C70.813 8.76272 70.7117 8.72005 70.5944 8.72005H66.3704L70.6104 4.03205C70.749 3.89338 70.8184 3.71738 70.8184 3.50405V1.23205C70.8184 1.11472 70.7757 1.01338 70.6904 0.928049C70.605 0.842716 70.5037 0.800049 70.3864 0.800049H61.6184C61.501 0.800049 61.3997 0.842716 61.3144 0.928049C61.229 1.01338 61.1864 1.11472 61.1864 1.23205V3.61605C61.1864 3.73338 61.229 3.83472 61.3144 3.92005C61.3997 4.00538 61.501 4.04805 61.6184 4.04805H65.7464L61.2664 8.70405C61.1064 8.86405 61.0264 9.05072 61.0264 9.26405V11.568C61.0264 11.6854 61.069 11.7867 61.1544 11.872Z" fill="#152934"/>
<path d="M72.5521 12C72.4348 12 72.3335 11.9574 72.2481 11.872C72.1628 11.7867 72.1201 11.6854 72.1201 11.568V9.26405C72.1201 9.05072 72.2001 8.86405 72.3601 8.70405L76.8401 4.04805H72.7121C72.5948 4.04805 72.4935 4.00538 72.4081 3.92005C72.3228 3.83472 72.2801 3.73338 72.2801 3.61605V1.23205C72.2801 1.11472 72.3228 1.01338 72.4081 0.928049C72.4935 0.842716 72.5948 0.800049 72.7121 0.800049H81.4801C81.5975 0.800049 81.6988 0.842716 81.7841 0.928049C81.8695 1.01338 81.9121 1.11472 81.9121 1.23205V3.50405C81.9121 3.71738 81.8428 3.89338 81.7041 4.03205L77.4641 8.72005H81.6881C81.8055 8.72005 81.9068 8.76272 81.9921 8.84805C82.0775 8.93338 82.1201 9.03472 82.1201 9.15205V11.568C82.1201 11.6854 82.0775 11.7867 81.9921 11.872C81.9068 11.9574 81.8055 12 81.6881 12H72.5521Z" fill="#152934"/>
<path fill-rule="evenodd" clip-rule="evenodd" d="M35.6201 0C32.0303 0 29.1201 2.91015 29.1201 6.5C29.1201 10.0899 32.0303 13 35.6201 13C39.21 13 42.1201 10.0899 42.1201 6.5C42.1201 2.91015 39.21 0 35.6201 0ZM33.6201 7C34.4485 7 35.1201 6.32843 35.1201 5.5C35.1201 4.67157 34.4485 4 33.6201 4C32.7917 4 32.1201 4.67157 32.1201 5.5C32.1201 6.32843 32.7917 7 33.6201 7ZM39.1201 5.5C39.1201 6.32843 38.4485 7 37.6201 7C36.7917 7 36.1201 6.32843 36.1201 5.5C36.1201 4.67157 36.7917 4 37.6201 4C38.4485 4 39.1201 4.67157 39.1201 5.5Z" fill="#152934"/>
</svg>
